<svg width="158" height="36" viewBox="0 0 158 36" fill="none" xmlns="http://www.w3.org/2000/svg">
<path d="M45.0024 27.8186V9.53223H46.732L53.6504 19.4977H52.6868L59.5805 9.53223H61.31V27.8186H59.3334V12.1831L59.9758 12.4286L53.2057 22.1731H53.1068L46.3614 12.4286L46.9791 12.1831V27.8186H45.0024Z" fill="#222222"/>
<path d="M71.4143 28.1131C70.1789 28.1131 69.0587 27.8186 68.0539 27.2295C67.0656 26.624 66.2831 25.7977 65.7066 24.7504C65.1301 23.7031 64.8418 22.5168 64.8418 21.1913C64.8418 19.8659 65.1218 18.6959 65.6819 17.6813C66.242 16.6504 66.9997 15.8404 67.9551 15.2513C68.927 14.6622 70.0141 14.3677 71.2166 14.3677C72.172 14.3677 73.0203 14.5477 73.7616 14.9077C74.5193 15.2513 75.1617 15.7259 75.6888 16.3313C76.216 16.9204 76.6195 17.5913 76.8996 18.344C77.1796 19.0804 77.3196 19.8413 77.3196 20.6268C77.3196 20.7904 77.3114 20.9786 77.2949 21.1913C77.2784 21.3877 77.2537 21.5922 77.2208 21.805H66.0278V20.0868H76.1583L75.2688 20.8231C75.4171 19.9231 75.31 19.1213 74.9476 18.4177C74.6017 17.6977 74.0993 17.1331 73.4404 16.724C72.7815 16.2986 72.0402 16.0859 71.2166 16.0859C70.393 16.0859 69.627 16.2986 68.9187 16.724C68.2269 17.1495 67.6833 17.7468 67.288 18.5159C66.8926 19.2686 66.7361 20.1686 66.8185 21.2159C66.7361 22.2631 66.9009 23.1795 67.3127 23.965C67.7409 24.734 68.3175 25.3313 69.0423 25.7568C69.7835 26.1822 70.5742 26.395 71.4143 26.395C72.3861 26.395 73.2015 26.1659 73.8604 25.7077C74.5193 25.2495 75.0547 24.6768 75.4665 23.9895L77.0478 24.824C76.7843 25.4131 76.3807 25.9613 75.8371 26.4686C75.2935 26.9595 74.6429 27.3604 73.8851 27.6713C73.1439 27.9659 72.3203 28.1131 71.4143 28.1131Z" fill="#222222"/>
<path d="M85.6522 27.9659C84.4662 27.9659 83.5519 27.6222 82.9095 26.935C82.2671 26.2477 81.9459 25.2659 81.9459 23.9895V16.5031H79.4997V14.6622H80.1175C80.6775 14.6622 81.1223 14.4822 81.4517 14.1222C81.7812 13.7459 81.9459 13.2795 81.9459 12.7231V11.6186H83.799V14.6622H86.7146V16.5031H83.799V23.9895C83.799 24.4313 83.8649 24.824 83.9967 25.1677C84.1285 25.495 84.3508 25.7568 84.6638 25.9531C84.9933 26.1495 85.4298 26.2477 85.9734 26.2477C86.1052 26.2477 86.2616 26.2395 86.4428 26.2231C86.624 26.2068 86.7805 26.1904 86.9123 26.174V27.8186C86.7146 27.8677 86.4923 27.9004 86.2452 27.9168C85.9981 27.9495 85.8004 27.9659 85.6522 27.9659Z" fill="#222222"/>
<path d="M93.7548 28.1131C92.9147 28.1131 92.1652 27.9577 91.5063 27.6468C90.8474 27.3195 90.3286 26.8777 89.9497 26.3213C89.5708 25.765 89.3814 25.1268 89.3814 24.4068C89.3814 23.7195 89.5297 23.0977 89.8262 22.5413C90.1227 21.9686 90.5839 21.4859 91.2098 21.0931C91.8358 20.7004 92.6347 20.4222 93.6066 20.2586L98.7953 19.3995V21.0686L94.0513 21.854C93.0959 22.0177 92.4041 22.3204 91.9758 22.7622C91.564 23.204 91.3581 23.7277 91.3581 24.3331C91.3581 24.9222 91.5887 25.4213 92.0499 25.8304C92.5276 26.2395 93.1371 26.444 93.8784 26.444C94.7843 26.444 95.575 26.2559 96.2504 25.8795C96.9257 25.4868 97.4528 24.9631 97.8317 24.3086C98.2106 23.654 98.4 22.9259 98.4 22.124V18.7859C98.4 18.0004 98.1117 17.3622 97.5352 16.8713C96.9587 16.3804 96.2092 16.135 95.2867 16.135C94.4796 16.135 93.7713 16.3395 93.1618 16.7486C92.5523 17.1413 92.0993 17.6568 91.8028 18.295L90.1227 17.3868C90.3697 16.8304 90.7568 16.3231 91.284 15.865C91.8275 15.4068 92.4453 15.0468 93.1371 14.785C93.8289 14.5068 94.5455 14.3677 95.2867 14.3677C96.2586 14.3677 97.1152 14.5559 97.8564 14.9322C98.6142 15.3086 99.1989 15.8322 99.6107 16.5031C100.039 17.1577 100.253 17.9186 100.253 18.7859V27.8186H98.4V25.1922L98.6718 25.4622C98.4412 25.9531 98.0788 26.4031 97.5846 26.8122C97.1069 27.205 96.5386 27.524 95.8797 27.7695C95.2373 27.9986 94.529 28.1131 93.7548 28.1131Z" fill="#222222"/>
<path d="M105.406 27.8182V9.53185H113.189C114.458 9.53185 115.545 9.74458 116.451 10.17C117.357 10.5955 118.049 11.2091 118.526 12.0109C119.004 12.7964 119.243 13.7537 119.243 14.8828C119.243 15.6846 119.021 16.4537 118.576 17.19C118.131 17.91 117.398 18.5155 116.377 19.0064V17.1409C117.349 17.5173 118.098 17.9673 118.625 18.4909C119.152 19.0146 119.515 19.5873 119.712 20.2091C119.91 20.8146 120.009 21.4528 120.009 22.1237C120.009 23.9237 119.408 25.3228 118.205 26.3209C117.003 27.3191 115.331 27.8182 113.189 27.8182H105.406ZM109.236 24.5046H113.634C114.408 24.5046 115.026 24.2837 115.487 23.8419C115.949 23.4 116.179 22.8273 116.179 22.1237C116.179 21.4037 115.949 20.8228 115.487 20.3809C115.026 19.9391 114.408 19.7182 113.634 19.7182H109.236V24.5046ZM109.236 16.4046H113.461C114.054 16.4046 114.524 16.2409 114.87 15.9137C115.232 15.57 115.413 15.12 115.413 14.5637C115.413 14.0073 115.232 13.5655 114.87 13.2382C114.524 12.8946 114.054 12.7228 113.461 12.7228H109.236V16.4046Z" fill="#222222"/>
<path d="M122.194 27.8182V9.2373H125.9V27.8182H122.194Z" fill="#222222"/>
<path d="M135.308 28.1128C133.974 28.1128 132.755 27.81 131.651 27.2046C130.564 26.5991 129.691 25.7728 129.032 24.7255C128.39 23.6619 128.069 22.4591 128.069 21.1173C128.069 19.7591 128.39 18.5564 129.032 17.5091C129.691 16.4619 130.564 15.6355 131.651 15.03C132.755 14.4246 133.974 14.1219 135.308 14.1219C136.643 14.1219 137.853 14.4246 138.941 15.03C140.028 15.6355 140.892 16.4619 141.535 17.5091C142.194 18.5564 142.523 19.7591 142.523 21.1173C142.523 22.4591 142.194 23.6619 141.535 24.7255C140.892 25.7728 140.028 26.5991 138.941 27.2046C137.853 27.81 136.643 28.1128 135.308 28.1128ZM135.308 24.7991C135.984 24.7991 136.568 24.6437 137.063 24.3328C137.573 24.0219 137.969 23.5882 138.249 23.0319C138.545 22.4755 138.693 21.8373 138.693 21.1173C138.693 20.3973 138.545 19.7673 138.249 19.2273C137.969 18.6709 137.573 18.2373 137.063 17.9264C136.568 17.5991 135.984 17.4355 135.308 17.4355C134.633 17.4355 134.04 17.5991 133.529 17.9264C133.019 18.2373 132.615 18.6709 132.319 19.2273C132.039 19.7673 131.899 20.3973 131.899 21.1173C131.899 21.8373 132.039 22.4755 132.319 23.0319C132.615 23.5882 133.019 24.0219 133.529 24.3328C134.04 24.6437 134.633 24.7991 135.308 24.7991Z" fill="#222222"/>
<path d="M151.329 33.2182C150.291 33.2182 149.327 33.0464 148.438 32.7028C147.548 32.3591 146.782 31.8764 146.14 31.2546C145.514 30.6491 145.061 29.9291 144.781 29.0946L148.215 27.8919C148.396 28.5137 148.767 29.0046 149.327 29.3646C149.887 29.7246 150.554 29.9046 151.329 29.9046C151.938 29.9046 152.465 29.79 152.91 29.5609C153.355 29.3482 153.692 29.0291 153.923 28.6037C154.17 28.1782 154.294 27.6791 154.294 27.1064V24.0382L155.01 24.9219C154.549 25.6746 153.956 26.2391 153.231 26.6155C152.506 26.9755 151.658 27.1555 150.686 27.1555C149.434 27.1555 148.314 26.8773 147.326 26.3209C146.337 25.7482 145.563 24.9709 145.003 23.9891C144.443 22.9909 144.163 21.8619 144.163 20.6019C144.163 19.3419 144.443 18.2291 145.003 17.2637C145.563 16.2819 146.329 15.5128 147.301 14.9564C148.273 14.4 149.377 14.1219 150.612 14.1219C151.584 14.1219 152.432 14.3182 153.157 14.7109C153.882 15.0873 154.499 15.6682 155.01 16.4537L154.541 17.3373V14.4164H158V27.1064C158 28.2846 157.712 29.3319 157.135 30.2482C156.558 31.1809 155.768 31.9091 154.763 32.4328C153.775 32.9564 152.63 33.2182 151.329 33.2182ZM151.205 23.8173C151.831 23.8173 152.375 23.6864 152.836 23.4246C153.297 23.1628 153.651 22.7946 153.898 22.32C154.162 21.8455 154.294 21.2891 154.294 20.6509C154.294 20.0128 154.162 19.4564 153.898 18.9819C153.635 18.4909 153.272 18.1146 152.811 17.8528C152.35 17.5746 151.814 17.4355 151.205 17.4355C150.579 17.4355 150.019 17.5746 149.525 17.8528C149.047 18.1146 148.668 18.4909 148.388 18.9819C148.125 19.4564 147.993 20.0128 147.993 20.6509C147.993 21.2728 148.125 21.8209 148.388 22.2955C148.668 22.77 149.047 23.1464 149.525 23.4246C150.019 23.6864 150.579 23.8173 151.205 23.8173Z" fill="#222222"/>
<path d="M18 36C27.9411 36 36 27.9411 36 18C36 8.05888 27.9411 0 18 0C8.05888 0 0 8.05888 0 18C0 22.152 1.40577 25.9756 3.76732 29.021L7.73554 14.0299C9.38672 7.52344 13.6758 4.15725 20.5616 4.15725H22.936C27.7785 4.15725 31.335 8.70307 30.1698 13.4033C29.9609 14.2463 29.5702 15.0334 29.0253 15.7097L27.0045 18.2174C26.486 18.8609 26.2968 19.7092 26.493 20.5121L27.109 23.0338C27.4278 24.339 27.3695 25.708 26.941 26.9814C25.4832 31.3132 21.4227 34.231 16.8521 34.231H10.2086C12.5662 35.3648 15.2089 36 18 36Z" fill="#222222"/>
<path fill-rule="evenodd" clip-rule="evenodd" d="M17.7 21.7592H14.1932C13.0747 21.7592 12.0968 22.5135 11.8129 23.5953L10.4373 28.8354H15.871C17.8811 28.8354 19.6384 27.4799 20.1487 25.5357L20.2666 25.0865C20.7082 23.4043 19.4392 21.7592 17.7 21.7592ZM16.6646 23.3514H14.759C14.1206 23.3514 13.5623 23.7814 13.3993 24.3988L12.6486 27.2432H15.6532C16.7647 27.2432 17.7364 26.4977 18.0186 25.4284L18.0838 25.1814C18.328 24.2562 17.6263 23.3514 16.6646 23.3514Z" fill="#222222"/>
<path fill-rule="evenodd" clip-rule="evenodd" d="M14.9971 11.7427C15.2811 10.6609 16.2589 9.90663 17.3774 9.90663H20.8843C22.6235 9.90663 23.8925 11.5517 23.4509 13.2339L23.333 13.6831C22.8227 15.6273 21.0654 16.9828 19.0553 16.9828H13.6216L14.9971 11.7427ZM16.5836 12.5462C16.7465 11.9289 17.3049 11.4988 17.9433 11.4988H19.8489C20.8106 11.4988 21.5123 12.4036 21.2681 13.3288L21.2029 13.5758C20.9207 14.6451 19.949 15.3907 18.8375 15.3907H15.8329L16.5836 12.5462Z" fill="#222222"/>
</svg>
